<?xml version="1.0" encoding="utf-8"?>
<!-- Generator: Adobe Illustrator 19.0.0, SVG Export Plug-In . SVG Version: 6.00 Build 0)  -->
<svg version="1.1" id="Layer_1" focusable="false" xmlns="http://www.w3.org/2000/svg" xmlns:xlink="http://www.w3.org/1999/xlink"
	 x="0px" y="0px" viewBox="-49 141 512 512" style="enable-background:new -49 141 512 512;" xml:space="preserve">
<style type="text/css">
	.st0{fill:#FFFFFF;}
</style>
<path class="st0" d="M463,340.7c0,23.6-20.6,43.8-44.8,43.8h-99.9c16.3,17,18.3,49.8-6.3,70.9c14.3,22.8,2.1,53-16.5,62.3
	c9,49.1-21.9,71.3-72.6,71.3c-2.7,0-13.3-0.2-16-0.2c-62,0.2-76.9-31.1-123.7-38.3C71.6,548.7,63,538.6,63,526.8V355.3l0,0
	c0-18.4,10.6-35.9,28.5-43.8c28.9-13,95.4-49,107.5-77.3c7.8-18.2,21.4-29.1,40-29.1c34.2,0,57.8,35.1,44.1,66.9
	c-3.6,8.4-8.3,16.7-14.2,24.9h149.2C441.7,296.8,463,317.4,463,340.7z M47,341v192c0,13.3-10.7,24-24,24h-48c-13.3,0-24-10.7-24-24
	V341c0-13.3,10.7-24,24-24h48C36.3,317,47,327.7,47,341z M19,509c0-11-9-20-20-20s-20,9-20,20c0,11,9,20,20,20S19,520,19,509z"/>
</svg>
